<svg width="627" height="45" viewBox="0 0 627 45" fill="none" xmlns="http://www.w3.org/2000/svg">
<path d="M10.3535 4.09375H30.959C31.8704 4.1263 32.6191 4.4681 33.2051 5.11914C33.8236 5.77018 34.1328 6.55143 34.1328 7.46289C33.9701 9.41602 32.9121 10.474 30.959 10.6367H12.0137C10.7767 10.7018 9.7513 11.1738 8.9375 12.0527C8.1237 12.9316 7.52148 13.9408 7.13086 15.0801C6.77279 16.1868 6.59375 17.3262 6.59375 18.498C6.59375 19.6699 6.77279 20.8255 7.13086 21.9648C7.52148 23.0716 8.1237 24.0645 8.9375 24.9434C9.7513 25.8223 10.7767 26.2943 12.0137 26.3594H26.8574C27.4434 26.3268 27.7526 26.0013 27.7852 25.3828V22.5508C27.7526 21.8997 27.4434 21.5742 26.8574 21.5742H14.3574C13.446 21.5742 12.6647 21.265 12.0137 20.6465C11.3952 19.9954 11.0859 19.2142 11.0859 18.3027C11.0859 17.3913 11.3952 16.61 12.0137 15.959C12.6647 15.3405 13.446 15.0312 14.3574 15.0312H31.0566C31.9681 15.0312 32.7493 15.3405 33.4004 15.959C33.9863 16.5775 34.2956 17.3262 34.3281 18.2051V18.3027V29.7285C34.2956 30.6074 33.9863 31.3398 33.4004 31.9258C32.7819 32.5443 32.0332 32.8698 31.1543 32.9023H10.3535C8.07487 32.7721 6.18685 31.9095 4.68945 30.3145C3.22461 28.6868 2.16667 26.8477 1.51562 24.7969C0.897135 22.7461 0.587891 20.6465 0.587891 18.498C0.587891 16.3496 0.913411 14.25 1.56445 12.1992C2.21549 10.1484 3.27344 8.32552 4.73828 6.73047C6.20312 5.10286 8.07487 4.22396 10.3535 4.09375ZM71.3887 13.5664C71.3887 14.3802 71.0632 15.0638 70.4121 15.6172C69.7936 16.138 69.0286 16.3984 68.1172 16.3984H47.4629C47.0397 16.3984 46.6979 16.4798 46.4375 16.6426C46.1771 16.8053 45.9818 16.9844 45.8516 17.1797C45.7214 17.3424 45.6562 17.4889 45.6562 17.6191C45.6562 17.7819 45.7214 17.9609 45.8516 18.1562C45.9818 18.319 46.1771 18.4818 46.4375 18.6445C46.6979 18.7747 47.0397 18.8561 47.4629 18.8887H63.4297C65.4805 18.9212 67.1732 19.3281 68.5078 20.1094C69.8424 20.8581 70.7865 21.7533 71.3398 22.7949C71.9258 23.804 72.2188 24.8294 72.2188 25.8711C72.2188 26.8802 71.9258 27.9056 71.3398 28.9473C70.7539 29.9564 69.7936 30.8516 68.459 31.6328C67.1569 32.3815 65.4805 32.7559 63.4297 32.7559C63.0716 32.7884 62.8112 32.8047 62.6484 32.8047H43.7031C42.7917 32.8047 42.0104 32.5443 41.3594 32.0234C40.7409 31.4701 40.4316 30.8027 40.4316 30.0215C40.4316 29.2077 40.7572 28.5241 41.4082 27.9707C42.0267 27.4499 42.7917 27.1895 43.7031 27.1895H63.8203C64.3086 27.222 64.6992 27.1569 64.9922 26.9941C65.3177 26.8314 65.5618 26.6523 65.7246 26.457C65.8874 26.2617 65.9688 26.0664 65.9688 25.8711C65.9688 25.7734 65.8874 25.6107 65.7246 25.3828C65.5618 25.1224 65.3177 24.9271 64.9922 24.7969C64.6992 24.6341 64.3086 24.5365 63.8203 24.5039H47.8047C45.9167 24.4714 44.3542 24.0807 43.1172 23.332C41.8802 22.5508 41.0013 21.6556 40.4805 20.6465C39.9596 19.6374 39.6992 18.6283 39.6992 17.6191C39.6992 16.61 39.9596 15.6172 40.4805 14.6406C41.0339 13.6315 41.9128 12.7689 43.1172 12.0527C44.3542 11.304 45.9167 10.8971 47.8047 10.832C48.1302 10.7995 48.3743 10.7832 48.5371 10.7832H68.1172C69.0286 10.7832 69.7936 11.0599 70.4121 11.6133C71.0632 12.1341 71.3887 12.7852 71.3887 13.5664ZM87.7461 32.9023C84.8815 32.8047 82.7168 32.1374 81.252 30.9004C79.7871 29.6309 78.7292 28.2148 78.0781 26.6523C77.4271 25.0573 77.1016 23.446 77.1016 21.8184C77.1016 20.1257 77.4108 18.498 78.0293 16.9355C78.6803 15.3405 79.7383 13.9245 81.2031 12.6875C82.7005 11.418 84.5885 10.7669 86.8672 10.7344H102.688C104.966 10.7669 106.838 11.418 108.303 12.6875C109.8 13.9245 110.858 15.3405 111.477 16.9355C112.128 18.498 112.453 20.1257 112.453 21.8184C112.453 23.446 112.128 25.0573 111.477 26.6523C110.826 28.2148 109.768 29.6309 108.303 30.9004C106.838 32.1374 104.673 32.8047 101.809 32.9023H87.7461ZM86.6719 17.2773C86.0534 17.2773 85.5163 17.5378 85.0605 18.0586C84.6048 18.5469 84.263 19.1328 84.0352 19.8164C83.8398 20.4674 83.7422 21.1185 83.7422 21.7695C83.7422 22.4531 83.8398 23.1367 84.0352 23.8203C84.263 24.4714 84.6048 25.0573 85.0605 25.5781C85.5163 26.0664 86.0534 26.3268 86.6719 26.3594H102.883C103.501 26.3268 104.038 26.0664 104.494 25.5781C104.95 25.0573 105.275 24.4714 105.471 23.8203C105.699 23.1367 105.812 22.4531 105.812 21.7695C105.812 21.1185 105.699 20.4674 105.471 19.8164C105.275 19.1328 104.95 18.5469 104.494 18.0586C104.038 17.5378 103.501 17.2773 102.883 17.2773H86.6719ZM127.98 32.9023C125.116 32.8047 122.951 32.1374 121.486 30.9004C120.021 29.6309 118.964 28.2148 118.312 26.6523C117.661 25.0573 117.336 23.446 117.336 21.8184C117.336 20.1257 117.645 18.498 118.264 16.9355C118.915 15.3405 119.973 13.9245 121.438 12.6875C122.935 11.418 124.823 10.7669 127.102 10.7344H145.656C146.568 10.7344 147.333 11.0599 147.951 11.7109C148.602 12.3294 148.928 13.0944 148.928 14.0059C148.928 14.9173 148.602 15.6986 147.951 16.3496C147.333 16.9681 146.568 17.2773 145.656 17.2773H126.906C126.288 17.2773 125.751 17.5378 125.295 18.0586C124.839 18.5469 124.497 19.1328 124.27 19.8164C124.074 20.4674 123.977 21.1185 123.977 21.7695C123.977 22.4531 124.074 23.1367 124.27 23.8203C124.497 24.4714 124.839 25.0573 125.295 25.5781C125.751 26.0664 126.288 26.3268 126.906 26.3594H145.656C146.568 26.3594 147.333 26.6849 147.951 27.3359C148.602 27.9544 148.928 28.7194 148.928 29.6309C148.928 30.5423 148.602 31.3073 147.951 31.9258C147.333 32.5768 146.568 32.9023 145.656 32.9023H127.98ZM205.275 4.09375C206.936 4.1263 208.417 4.64714 209.719 5.65625C211.021 6.66536 212.062 7.86979 212.844 9.26953C213.658 10.6693 214.26 12.1504 214.65 13.7129C215.041 15.2754 215.236 16.8704 215.236 18.498C215.236 20.6465 214.895 22.7624 214.211 24.8457C213.56 26.8965 212.469 28.7194 210.939 30.3145C209.442 31.9095 207.554 32.7721 205.275 32.9023H188.234C185.956 32.8047 184.051 31.9583 182.521 30.3633C180.992 28.7682 179.901 26.929 179.25 24.8457C178.632 22.7624 178.322 20.6465 178.322 18.498C178.322 16.3496 178.648 14.25 179.299 12.1992C179.95 10.1159 181.024 8.27669 182.521 6.68164C184.051 5.05404 185.956 4.19141 188.234 4.09375H189.162H204.348H205.275ZM203.615 26.3594C204.852 26.2943 205.878 25.8385 206.691 24.9922C207.538 24.1133 208.14 23.1042 208.498 21.9648C208.856 20.8255 209.035 19.6699 209.035 18.498C209.035 17.3262 208.84 16.1868 208.449 15.0801C208.091 13.9408 207.505 12.9316 206.691 12.0527C205.878 11.1738 204.852 10.7018 203.615 10.6367H189.748C188.511 10.7018 187.486 11.1738 186.672 12.0527C185.858 12.9316 185.256 13.9408 184.865 15.0801C184.507 16.1868 184.328 17.3262 184.328 18.498C184.328 19.6699 184.507 20.8255 184.865 21.9648C185.223 23.1042 185.809 24.1133 186.623 24.9922C187.469 25.8385 188.511 26.2943 189.748 26.3594H203.615ZM221.584 16.8867C222.202 15.3242 223.244 13.9245 224.709 12.6875C226.206 11.418 228.094 10.7669 230.373 10.7344H248.732C249.644 10.7344 250.409 11.0599 251.027 11.7109C251.678 12.3294 252.004 13.0944 252.004 14.0059C252.004 14.9173 251.678 15.6986 251.027 16.3496C250.409 16.9681 249.644 17.2773 248.732 17.2773H230.178C229.559 17.2773 229.022 17.5378 228.566 18.0586C228.111 18.5469 227.753 19.1328 227.492 19.8164C227.264 20.5 227.15 21.151 227.15 21.7695V30.3145C226.955 32.2676 225.881 33.3255 223.928 33.4883C223.016 33.4883 222.219 33.1953 221.535 32.6094C220.884 31.9909 220.559 31.2259 220.559 30.3145V21.8184H220.607C220.607 20.1257 220.933 18.4818 221.584 16.8867ZM284.23 18.5469C284.23 17.7331 283.807 17.3099 282.961 17.2773H265.871C265.253 17.3099 264.715 17.5866 264.26 18.1074C263.804 18.5957 263.462 19.1816 263.234 19.8652C263.039 20.5163 262.941 21.1836 262.941 21.8672C262.941 22.5182 263.039 23.1855 263.234 23.8691C263.462 24.5202 263.804 25.1061 264.26 25.627C264.715 26.1152 265.253 26.3594 265.871 26.3594H278.371C279.283 26.3594 280.048 26.6849 280.666 27.3359C281.317 27.9544 281.643 28.7194 281.643 29.6309C281.643 30.5423 281.317 31.3073 280.666 31.9258C280.048 32.5768 279.283 32.9023 278.371 32.9023H266.066C263.788 32.8698 261.9 32.235 260.402 30.998C258.938 29.7285 257.88 28.3125 257.229 26.75C256.61 25.1549 256.301 23.5111 256.301 21.8184C256.301 20.1908 256.626 18.5957 257.277 17.0332C257.928 15.4382 258.986 14.0221 260.451 12.7852C261.916 11.5156 264.081 10.832 266.945 10.7344H287.453C288.365 10.7344 289.146 11.0436 289.797 11.6621C290.448 12.248 290.79 12.9967 290.822 13.9082V29.3379C290.822 31.9421 290.464 34.3997 289.748 36.7109C289.097 38.7617 288.023 40.487 286.525 41.8867C285.061 43.319 283.189 44.1003 280.91 44.2305H264.016C263.137 44.1979 262.388 43.8724 261.77 43.2539C261.184 42.668 260.874 41.9355 260.842 41.0566C260.842 40.1452 261.135 39.3639 261.721 38.7129C262.339 38.0618 263.104 37.7201 264.016 37.6875H279.25C280.487 37.6224 281.512 37.1504 282.326 36.2715C283.14 35.3926 283.661 34.3672 283.889 33.1953C284.117 32.0234 284.23 30.5098 284.23 28.6543V18.5469ZM324.709 30.3145V18.5469C324.709 17.7331 324.286 17.3099 323.439 17.2773H306.35C305.731 17.3099 305.194 17.5866 304.738 18.1074C304.283 18.5957 303.941 19.1816 303.713 19.8652C303.518 20.5163 303.42 21.1836 303.42 21.8672C303.42 22.5182 303.518 23.1855 303.713 23.8691C303.941 24.5202 304.283 25.1061 304.738 25.627C305.194 26.1152 305.731 26.3594 306.35 26.3594H318.85C319.761 26.3594 320.526 26.6849 321.145 27.3359C321.796 27.9544 322.121 28.7194 322.121 29.6309C322.121 30.5423 321.796 31.3073 321.145 31.9258C320.526 32.5768 319.761 32.9023 318.85 32.9023H306.545C304.266 32.8698 302.378 32.235 300.881 30.998C299.416 29.7285 298.358 28.3125 297.707 26.75C297.089 25.1549 296.779 23.5111 296.779 21.8184C296.779 20.1908 297.105 18.5957 297.756 17.0332C298.407 15.4382 299.465 14.0221 300.93 12.7852C302.395 11.5156 304.559 10.832 307.424 10.7344H327.932C328.843 10.7344 329.624 11.0436 330.275 11.6621C330.926 12.248 331.268 12.9967 331.301 13.9082V30.3145C331.301 31.2259 330.959 31.9909 330.275 32.6094C329.624 33.1953 328.843 33.4883 327.932 33.4883C325.979 33.3255 324.904 32.2676 324.709 30.3145ZM353.176 10.002C354.868 10.002 356.529 10.1973 358.156 10.5879C359.816 10.9785 361.395 11.5645 362.893 12.3457C364.39 13.0944 365.708 14.1035 366.848 15.373C368.02 16.6426 368.654 18.1562 368.752 19.9141V21.9648V30.3145C368.557 32.2676 367.482 33.3255 365.529 33.4883C364.618 33.4883 363.82 33.1953 363.137 32.6094C362.486 31.9909 362.16 31.2259 362.16 30.3145V28.166V21.4277C362.095 20.4186 361.704 19.5885 360.988 18.9375C360.305 18.2539 359.523 17.7168 358.645 17.3262C357.798 16.9355 356.903 16.6426 355.959 16.4473C355.048 16.252 354.12 16.1543 353.176 16.1543C352.232 16.1543 351.288 16.252 350.344 16.4473C349.432 16.6426 348.537 16.9355 347.658 17.3262C346.812 17.7168 346.031 18.2539 345.314 18.9375C344.631 19.5885 344.257 20.4186 344.191 21.4277V28.166V30.3145C344.029 32.2676 342.971 33.3255 341.018 33.4883C340.106 33.4883 339.309 33.1953 338.625 32.6094C337.974 31.9909 337.648 31.2259 337.648 30.3145V21.9648V19.9141C337.746 18.1562 338.365 16.6426 339.504 15.373C340.643 14.1035 341.962 13.0944 343.459 12.3457C344.956 11.5645 346.519 10.9785 348.146 10.5879C349.807 10.1973 351.483 10.002 353.176 10.002ZM378.322 10.2461C379.201 10.2786 379.95 10.6042 380.568 11.2227C381.187 11.8086 381.512 12.541 381.545 13.4199V30.3145C381.35 32.2676 380.275 33.3255 378.322 33.4883C377.411 33.4883 376.613 33.1953 375.93 32.6094C375.279 31.9909 374.953 31.2259 374.953 30.3145V13.4199C374.986 12.5085 375.327 11.7598 375.979 11.1738C376.63 10.5553 377.411 10.2461 378.322 10.2461ZM374.221 3.89844C374.221 2.98698 374.611 2.20573 375.393 1.55469C376.174 0.903646 377.118 0.578125 378.225 0.578125C379.331 0.578125 380.275 0.903646 381.057 1.55469C381.838 2.20573 382.229 2.98698 382.229 3.89844C382.229 4.84245 381.838 5.63997 381.057 6.29102C380.275 6.94206 379.331 7.26758 378.225 7.26758C377.118 7.26758 376.174 6.94206 375.393 6.29102C374.611 5.63997 374.221 4.84245 374.221 3.89844ZM386.77 14.0059C386.77 13.0944 387.079 12.3294 387.697 11.7109C388.348 11.0599 389.13 10.7344 390.041 10.7344H417.287C418.199 10.7344 418.98 11.0436 419.631 11.6621C420.249 12.3132 420.559 13.0944 420.559 14.0059C420.559 14.9173 420.298 15.6009 419.777 16.0566C419.289 16.4798 418.801 16.8379 418.312 17.1309L401.76 26.3594H417.287C418.199 26.3594 418.98 26.6686 419.631 27.2871C420.249 27.9382 420.559 28.7194 420.559 29.6309C420.559 30.5423 420.233 31.3236 419.582 31.9746C418.964 32.5931 418.199 32.9023 417.287 32.9023H390.041C389.13 32.9023 388.365 32.5768 387.746 31.9258C387.095 31.3073 386.77 30.5423 386.77 29.6309C386.77 28.7194 387.095 27.9382 387.746 27.2871C387.876 27.1569 388.007 27.043 388.137 26.9453L388.234 26.8965L405.666 17.2773H390.041C389.13 17.2773 388.365 16.9518 387.746 16.3008C387.095 15.6823 386.77 14.9173 386.77 14.0059ZM453.225 30.3145V18.5469C453.225 17.7331 452.801 17.3099 451.955 17.2773H434.865C434.247 17.3099 433.71 17.5866 433.254 18.1074C432.798 18.5957 432.456 19.1816 432.229 19.8652C432.033 20.5163 431.936 21.1836 431.936 21.8672C431.936 22.5182 432.033 23.1855 432.229 23.8691C432.456 24.5202 432.798 25.1061 433.254 25.627C433.71 26.1152 434.247 26.3594 434.865 26.3594H447.365C448.277 26.3594 449.042 26.6849 449.66 27.3359C450.311 27.9544 450.637 28.7194 450.637 29.6309C450.637 30.5423 450.311 31.3073 449.66 31.9258C449.042 32.5768 448.277 32.9023 447.365 32.9023H435.061C432.782 32.8698 430.894 32.235 429.396 30.998C427.932 29.7285 426.874 28.3125 426.223 26.75C425.604 25.1549 425.295 23.5111 425.295 21.8184C425.295 20.1908 425.62 18.5957 426.271 17.0332C426.923 15.4382 427.98 14.0221 429.445 12.7852C430.91 11.5156 433.075 10.832 435.939 10.7344H456.447C457.359 10.7344 458.14 11.0436 458.791 11.6621C459.442 12.248 459.784 12.9967 459.816 13.9082V30.3145C459.816 31.2259 459.475 31.9909 458.791 32.6094C458.14 33.1953 457.359 33.4883 456.447 33.4883C454.494 33.3255 453.42 32.2676 453.225 30.3145ZM476.711 3.3125C477.622 3.3125 478.404 3.62174 479.055 4.24023C479.706 4.82617 480.048 5.57487 480.08 6.48633V10.7344H496.682C497.593 10.7344 498.374 11.0436 499.025 11.6621C499.644 12.3132 499.953 13.0944 499.953 14.0059C499.953 14.9173 499.628 15.6986 498.977 16.3496C498.358 16.9681 497.593 17.2773 496.682 17.2773H480.08V18.2539C480.048 19.5885 480.129 20.8255 480.324 21.9648C480.552 23.0716 481.073 24.0645 481.887 24.9434C482.701 25.8223 483.726 26.2943 484.963 26.3594H496.877C497.788 26.3919 498.537 26.7337 499.123 27.3848C499.742 28.0358 500.051 28.8171 500.051 29.7285C500.018 30.6074 499.693 31.3561 499.074 31.9746C498.488 32.5605 497.756 32.8698 496.877 32.9023H483.303C481.024 32.7721 479.136 32.0072 477.639 30.6074C476.174 29.1751 475.116 27.4336 474.465 25.3828C473.846 23.332 473.521 21.151 473.488 18.8398V17.2773H467.873C466.962 17.2773 466.197 16.9518 465.578 16.3008C464.927 15.6823 464.602 14.9173 464.602 14.0059C464.602 13.0944 464.911 12.3294 465.529 11.7109C466.18 11.0599 466.962 10.7344 467.873 10.7344H473.488V6.48633C473.521 5.60742 473.846 4.875 474.465 4.28906C475.083 3.67057 475.832 3.34505 476.711 3.3125ZM508.107 10.2461C508.986 10.2786 509.735 10.6042 510.354 11.2227C510.972 11.8086 511.298 12.541 511.33 13.4199V30.3145C511.135 32.2676 510.061 33.3255 508.107 33.4883C507.196 33.4883 506.398 33.1953 505.715 32.6094C505.064 31.9909 504.738 31.2259 504.738 30.3145V13.4199C504.771 12.5085 505.113 11.7598 505.764 11.1738C506.415 10.5553 507.196 10.2461 508.107 10.2461ZM504.006 3.89844C504.006 2.98698 504.396 2.20573 505.178 1.55469C505.959 0.903646 506.903 0.578125 508.01 0.578125C509.117 0.578125 510.061 0.903646 510.842 1.55469C511.623 2.20573 512.014 2.98698 512.014 3.89844C512.014 4.84245 511.623 5.63997 510.842 6.29102C510.061 6.94206 509.117 7.26758 508.01 7.26758C506.903 7.26758 505.959 6.94206 505.178 6.29102C504.396 5.63997 504.006 4.84245 504.006 3.89844ZM527.395 32.9023C524.53 32.8047 522.365 32.1374 520.9 30.9004C519.436 29.6309 518.378 28.2148 517.727 26.6523C517.076 25.0573 516.75 23.446 516.75 21.8184C516.75 20.1257 517.059 18.498 517.678 16.9355C518.329 15.3405 519.387 13.9245 520.852 12.6875C522.349 11.418 524.237 10.7669 526.516 10.7344H542.336C544.615 10.7669 546.486 11.418 547.951 12.6875C549.449 13.9245 550.507 15.3405 551.125 16.9355C551.776 18.498 552.102 20.1257 552.102 21.8184C552.102 23.446 551.776 25.0573 551.125 26.6523C550.474 28.2148 549.416 29.6309 547.951 30.9004C546.486 32.1374 544.322 32.8047 541.457 32.9023H527.395ZM526.32 17.2773C525.702 17.2773 525.165 17.5378 524.709 18.0586C524.253 18.5469 523.911 19.1328 523.684 19.8164C523.488 20.4674 523.391 21.1185 523.391 21.7695C523.391 22.4531 523.488 23.1367 523.684 23.8203C523.911 24.4714 524.253 25.0573 524.709 25.5781C525.165 26.0664 525.702 26.3268 526.32 26.3594H542.531C543.15 26.3268 543.687 26.0664 544.143 25.5781C544.598 25.0573 544.924 24.4714 545.119 23.8203C545.347 23.1367 545.461 22.4531 545.461 21.7695C545.461 21.1185 545.347 20.4674 545.119 19.8164C544.924 19.1328 544.598 18.5469 544.143 18.0586C543.687 17.5378 543.15 17.2773 542.531 17.2773H526.32ZM573.293 10.002C574.986 10.002 576.646 10.1973 578.273 10.5879C579.934 10.9785 581.512 11.5645 583.01 12.3457C584.507 13.0944 585.826 14.1035 586.965 15.373C588.137 16.6426 588.771 18.1562 588.869 19.9141V21.9648V30.3145C588.674 32.2676 587.6 33.3255 585.646 33.4883C584.735 33.4883 583.938 33.1953 583.254 32.6094C582.603 31.9909 582.277 31.2259 582.277 30.3145V28.166V21.4277C582.212 20.4186 581.822 19.5885 581.105 18.9375C580.422 18.2539 579.641 17.7168 578.762 17.3262C577.915 16.9355 577.02 16.6426 576.076 16.4473C575.165 16.252 574.237 16.1543 573.293 16.1543C572.349 16.1543 571.405 16.252 570.461 16.4473C569.549 16.6426 568.654 16.9355 567.775 17.3262C566.929 17.7168 566.148 18.2539 565.432 18.9375C564.748 19.5885 564.374 20.4186 564.309 21.4277V28.166V30.3145C564.146 32.2676 563.088 33.3255 561.135 33.4883C560.223 33.4883 559.426 33.1953 558.742 32.6094C558.091 31.9909 557.766 31.2259 557.766 30.3145V21.9648V19.9141C557.863 18.1562 558.482 16.6426 559.621 15.373C560.76 14.1035 562.079 13.0944 563.576 12.3457C565.074 11.5645 566.636 10.9785 568.264 10.5879C569.924 10.1973 571.6 10.002 573.293 10.002ZM626.076 13.5664C626.076 14.3802 625.751 15.0638 625.1 15.6172C624.481 16.138 623.716 16.3984 622.805 16.3984H602.15C601.727 16.3984 601.385 16.4798 601.125 16.6426C600.865 16.8053 600.669 16.9844 600.539 17.1797C600.409 17.3424 600.344 17.4889 600.344 17.6191C600.344 17.7819 600.409 17.9609 600.539 18.1562C600.669 18.319 600.865 18.4818 601.125 18.6445C601.385 18.7747 601.727 18.8561 602.15 18.8887H618.117C620.168 18.9212 621.861 19.3281 623.195 20.1094C624.53 20.8581 625.474 21.7533 626.027 22.7949C626.613 23.804 626.906 24.8294 626.906 25.8711C626.906 26.8802 626.613 27.9056 626.027 28.9473C625.441 29.9564 624.481 30.8516 623.146 31.6328C621.844 32.3815 620.168 32.7559 618.117 32.7559C617.759 32.7884 617.499 32.8047 617.336 32.8047H598.391C597.479 32.8047 596.698 32.5443 596.047 32.0234C595.428 31.4701 595.119 30.8027 595.119 30.0215C595.119 29.2077 595.445 28.5241 596.096 27.9707C596.714 27.4499 597.479 27.1895 598.391 27.1895H618.508C618.996 27.222 619.387 27.1569 619.68 26.9941C620.005 26.8314 620.249 26.6523 620.412 26.457C620.575 26.2617 620.656 26.0664 620.656 25.8711C620.656 25.7734 620.575 25.6107 620.412 25.3828C620.249 25.1224 620.005 24.9271 619.68 24.7969C619.387 24.6341 618.996 24.5365 618.508 24.5039H602.492C600.604 24.4714 599.042 24.0807 597.805 23.332C596.568 22.5508 595.689 21.6556 595.168 20.6465C594.647 19.6374 594.387 18.6283 594.387 17.6191C594.387 16.61 594.647 15.6172 595.168 14.6406C595.721 13.6315 596.6 12.7689 597.805 12.0527C599.042 11.304 600.604 10.8971 602.492 10.832C602.818 10.7995 603.062 10.7832 603.225 10.7832H622.805C623.716 10.7832 624.481 11.0599 625.1 11.6133C625.751 12.1341 626.076 12.7852 626.076 13.5664Z" fill="#DB6400"/>
</svg>
